<svg version="1.1" id="Layer_1" xmlns="http://www.w3.org/2000/svg" xmlns:xlink="http://www.w3.org/1999/xlink" x="0px" y="0px"
	 width="100%" viewBox="0 0 432 400" enable-background="new 0 0 432 400" xml:space="preserve">
<path fill="#FF0000" opacity="1.000000" stroke="none" 
	d="
M200.468658,401.000000 
	C190.873886,399.135315 181.508118,399.346130 172.346542,397.427216 
	C150.003601,392.747375 128.739532,385.426544 109.130302,373.574188 
	C94.987175,365.025665 81.168953,356.004303 69.078278,344.661957 
	C53.046345,329.622345 40.208920,311.994690 28.557207,293.465210 
	C27.349363,291.544373 26.064838,289.512543 26.340528,287.007812 
	C27.912529,285.118835 30.055490,285.692902 31.955980,285.692963 
	C67.115013,285.693848 102.274071,285.735779 137.433075,285.797150 
	C142.114548,285.805328 146.777969,286.386047 151.205139,287.852020 
	C158.639206,290.313690 164.040421,295.106995 165.530533,303.064941 
	C166.985886,310.837311 170.343277,318.194092 169.916000,326.414398 
	C169.649338,331.544769 167.625839,334.004425 162.513489,332.708252 
	C157.946426,331.550262 153.697556,329.472595 151.109879,325.200256 
	C147.476578,319.201508 142.764572,314.545990 136.250610,311.612335 
	C132.036163,309.714264 129.479401,305.315277 124.822807,303.743835 
	C120.486702,302.280518 118.365379,303.221222 118.339439,307.760040 
	C118.243263,324.591675 118.369843,341.425232 118.167488,358.255127 
	C118.123917,361.878448 120.232689,363.247284 122.782730,364.575806 
	C143.496277,375.367096 165.326508,383.035767 188.561401,385.540649 
	C242.700897,391.377197 292.049713,379.152344 335.103424,344.820221 
	C362.240936,323.180084 380.857971,295.406891 393.569122,263.344025 
	C398.079987,251.965668 401.559967,240.375076 402.524750,228.180237 
	C402.855469,223.999680 404.511871,222.812897 408.403412,222.771301 
	C417.609772,222.672882 418.719574,223.805054 416.751282,232.782913 
	C408.896973,268.608521 394.964905,301.624817 370.821350,329.666382 
	C354.820831,348.250153 336.039673,363.561035 314.491333,375.441406 
	C292.988892,387.296448 270.202789,395.261200 245.915833,398.954742 
	C239.833374,399.879761 233.586243,398.784607 227.295624,400.790039 
	C218.312439,401.000000 209.624863,401.000000 200.468658,401.000000 
M59.835762,303.194672 
	C56.589268,306.170410 56.991196,308.986206 59.738628,312.217224 
	C67.281296,321.087646 75.023064,329.781647 83.706436,337.531677 
	C88.800545,342.078217 94.478714,345.970398 100.234436,350.419952 
	C100.604942,348.962921 100.777069,348.493408 100.839645,348.009705 
	C102.552765,334.768555 101.354431,321.465851 101.638214,308.193909 
	C101.809731,300.173004 98.992653,297.916107 91.012665,299.320038 
	C88.400452,299.779602 85.816086,300.432129 83.252312,301.120575 
	C81.456902,301.602722 79.719284,301.977936 77.881683,301.345612 
	C71.878609,299.279877 66.134460,300.502014 59.835762,303.194672 
z"/>


<path fill="#ffffff" opacity="1.000000" stroke="none" 
	d="
M1.000000,213.468658 
	C3.776815,212.981216 4.678681,211.266815 4.921396,208.815552 
	C5.788532,200.058060 6.586967,191.291489 7.622574,182.553360 
	C12.837090,138.555008 31.215328,100.767380 61.446247,68.552689 
	C89.877426,38.255840 124.674583,19.183098 164.816360,9.285191 
	C171.640533,7.602531 178.668839,5.795061 185.411438,5.185291 
	C200.792587,3.794289 216.351257,3.209080 231.861694,4.509822 
	C234.811234,4.757176 237.815689,4.296007 240.796280,4.239327 
	C244.991470,4.159552 248.824310,3.802387 252.984528,6.542949 
	C256.915222,9.132298 262.417389,9.349316 267.237762,10.572728 
	C310.132019,21.459332 345.550018,44.063568 373.804810,78.118019 
	C389.937897,97.562660 401.873840,119.369362 411.210510,142.698517 
	C414.549377,151.041229 414.287079,151.296951 405.440674,151.241547 
	C400.446777,151.210266 395.453156,151.079926 390.460907,150.940048 
	C390.061707,150.928848 389.674316,150.495148 389.220428,150.220947 
	C390.399353,147.997589 393.171753,149.419907 394.629974,147.239044 
	C394.865601,144.084106 393.751923,140.751114 392.399475,137.582199 
	C378.151001,104.197426 356.785980,76.401352 327.130859,55.244572 
	C305.191864,39.592697 281.312714,28.180140 254.713882,22.930777 
	C233.504456,18.745026 212.182205,18.282415 190.651382,20.122234 
	C156.519318,23.038832 125.952080,35.248535 98.598816,55.294483 
	C64.814491,80.053467 41.445740,112.708412 28.625561,152.629761 
	C24.455317,165.615692 22.825327,179.195679 21.231434,192.745239 
	C20.568741,198.378754 20.397507,204.018692 19.936214,209.649139 
	C19.652573,213.111221 18.339312,214.958054 14.643419,214.385300 
	C14.480575,214.360062 14.310628,214.378647 14.144015,214.380005 
	C3.811729,214.464417 3.435888,214.827576 4.763872,225.170471 
	C5.061291,227.486893 4.364678,229.436371 3.561316,231.430878 
	C2.961563,232.919891 1.620968,234.371490 4.012914,235.900009 
	C6.814957,234.464447 6.034248,231.742325 5.984601,229.484375 
	C5.915036,226.320526 7.209482,225.056686 10.362486,224.826248 
	C20.347937,224.096451 22.144735,225.559189 22.292097,235.523193 
	C22.333344,238.312256 23.066963,241.167892 21.700947,244.559830 
	C17.340273,242.028183 12.409132,244.240021 7.796806,242.608200 
	C5.095360,241.652420 4.035797,243.140121 4.193437,245.646545 
	C4.339306,247.965820 4.615287,250.285507 4.989915,252.579559 
	C5.418278,255.202652 4.697403,256.844208 1.397987,256.989319 
	C1.000000,242.645767 1.000000,228.291550 1.000000,213.468658 
z"/>
<path fill="#ffffff" opacity="1.000000" stroke="none" 
	d="
M314.088776,294.302124 
	C299.355499,292.963959 285.071045,291.845001 270.748962,292.387085 
	C260.717621,292.766846 252.601089,289.087585 245.684158,282.174591 
	C230.251297,266.750580 214.870468,251.274124 199.375198,235.913086 
	C196.159485,232.725250 193.035248,229.147629 188.350647,228.370468 
	C186.697205,230.149551 187.425018,231.585281 187.879333,232.985336 
	C190.343307,240.578430 192.821930,248.166763 195.306900,255.753021 
	C196.348740,258.933624 197.277405,262.138824 196.935608,265.536316 
	C196.574768,269.123077 195.021912,272.081329 191.410812,273.117249 
	C188.399994,273.980957 185.512650,275.081970 182.962799,276.415070 
	C181.608765,275.842896 181.239395,274.937042 180.968338,273.947540 
	C176.395432,257.253601 161.145126,245.832260 143.375366,245.287231 
	C115.246063,244.424438 87.120430,245.188522 58.994232,245.211533 
	C48.833019,245.219849 38.759052,244.496307 27.811489,243.737381 
	C31.520706,239.124695 29.129494,234.442566 29.458462,229.942688 
	C29.748516,225.975113 31.307850,224.681961 34.965805,224.709213 
	C43.628571,224.773743 52.292332,224.697479 60.955696,224.690872 
	C79.448868,224.676773 97.961174,225.185699 116.429222,224.499832 
	C131.429245,223.942764 146.371323,224.284668 161.343628,224.655930 
	C166.808319,224.791428 172.198074,225.768799 177.762863,225.160187 
	C182.224930,224.672165 183.295044,223.206528 181.818054,219.196075 
	C181.318192,217.838791 181.264328,216.317215 180.897552,214.258331 
	C186.382812,213.749161 191.594727,212.791397 196.790985,212.869965 
	C213.856049,213.128098 230.716492,195.520477 232.592102,178.264404 
	C234.823242,157.736877 222.961731,137.674133 204.211151,130.180664 
	C199.848862,128.437317 195.305573,127.430046 190.598312,127.419746 
	C168.606506,127.371613 146.614014,127.441856 124.623253,127.273964 
	C120.650871,127.243637 119.246056,128.310623 118.977455,132.540421 
	C117.655785,153.353714 118.640831,174.176468 118.293930,194.989304 
	C118.159050,203.081802 118.197205,203.098572 110.426018,203.209717 
	C100.922142,203.345642 100.258385,203.083145 100.945381,193.634064 
	C102.774475,168.476456 100.429413,143.353302 100.769730,118.214455 
	C100.856705,111.790611 100.762695,111.710999 107.039902,111.718605 
	C127.532288,111.743439 148.042160,111.307526 168.510895,112.027336 
	C182.402145,112.515839 196.543152,111.440643 210.110458,115.892899 
	C232.073486,123.100304 244.874680,138.628738 248.098526,160.989426 
	C251.826904,186.849579 242.534012,207.647537 220.046432,221.920303 
	C218.116562,223.145203 215.895737,224.056076 214.655212,226.090530 
	C214.680603,228.070374 215.989258,229.215973 217.128983,230.375992 
	C230.199371,243.679276 243.224869,257.028259 256.437042,270.189697 
	C260.948822,274.684143 266.523499,276.794769 273.130768,276.751373 
	C289.454559,276.644073 305.782623,276.834473 322.105804,277.101715 
	C333.645294,277.290649 336.292999,281.128876 333.131683,292.224640 
	C332.325134,295.055573 330.249695,295.095245 328.024628,294.996521 
	C323.536407,294.797363 319.050598,294.543152 314.088776,294.302124 
z"/>
<path fill="#ffffff" opacity="1.000000" stroke="none" 
	d="
M172.896393,285.641724 
	C173.212631,288.258545 172.315521,288.787415 170.380493,287.760040 
	C167.296524,286.122650 164.095398,284.667664 161.159744,282.796753 
	C154.048706,278.264923 146.297577,276.321594 137.938980,276.319855 
	C104.481201,276.312805 71.023407,276.243011 37.565662,276.262451 
	C32.734066,276.265259 28.004761,274.829132 23.136797,275.461090 
	C21.502905,275.673187 20.292076,274.691010 19.349005,273.431488 
	C15.896775,268.820679 14.078504,263.442841 12.299873,258.072235 
	C11.653589,256.120789 12.579927,254.844498 14.744677,254.703354 
	C17.734182,254.508423 20.741165,254.013977 23.711195,254.178787 
	C45.187157,255.370468 66.675262,254.527832 88.154930,254.606918 
	C106.106491,254.673035 124.039017,253.640472 142.019699,254.517426 
	C159.583221,255.374054 170.972275,265.460175 172.453735,282.792877 
	C172.524475,283.620422 172.711716,284.437988 172.896393,285.641724 
z"/>
<path fill="#ff0000" opacity="1.000000" stroke="none" 
	d="
M386.499268,162.162964 
	C391.941895,163.611481 395.127228,166.472031 395.012054,172.104843 
	C394.958893,174.704865 395.613434,176.766327 398.889404,176.595230 
	C400.291962,176.521988 400.820892,178.188934 402.303314,178.955826 
	C401.934784,174.288452 401.672485,170.152161 401.261047,166.030762 
	C400.968170,163.097336 401.948669,161.833237 405.096954,161.749863 
	C414.301331,161.506119 414.853058,161.779251 416.516235,170.727371 
	C417.177429,174.284714 417.561768,177.893509 418.108032,181.730652 
	C411.713593,183.084015 405.422852,182.917648 399.480194,182.680237 
	C378.000214,181.822128 356.570190,183.027527 335.120270,183.085144 
	C322.827515,183.118164 310.466125,183.805084 298.309448,181.270737 
	C290.600464,179.663620 285.191254,175.556366 284.762970,166.979950 
	C284.562714,162.969147 280.781158,159.523361 282.600220,155.379929 
	C283.773651,154.697601 284.623077,154.810944 285.330780,155.268005 
	C294.380829,161.112640 304.539703,160.968704 314.742462,160.927536 
	C334.559998,160.847595 354.378204,160.963120 374.196075,160.941711 
	C378.211639,160.937378 382.182220,161.165985 386.499268,162.162964 
z"/>
<path fill="#ff0000" opacity="1.000000" stroke="none" 
	d="
M339.000061,192.671906 
	C361.465851,192.314774 383.436096,193.277481 405.405762,191.971603 
	C419.785065,191.116913 419.444000,191.455383 418.612122,205.571304 
	C418.279266,211.219666 416.266479,212.113251 411.131897,212.414383 
	C381.701752,214.140396 352.251862,212.747299 322.824951,213.464828 
	C313.853546,213.683578 304.919617,214.818832 295.932800,213.424850 
	C290.206207,212.536560 287.642029,209.710098 287.980042,203.700775 
	C288.063538,202.216522 288.515076,200.756699 288.719238,199.274887 
	C289.949280,190.345856 289.929749,190.423874 298.621216,191.734634 
	C311.867157,193.732254 325.209717,192.212173 339.000061,192.671906 
z"/>
<path fill="#ff0000" opacity="1.000000" stroke="none" 
	d="
M309.375793,245.601501 
	C307.559448,244.379990 305.847351,243.507034 305.021790,241.789719 
	C302.297516,236.122726 298.661987,231.278625 293.184662,227.971756 
	C292.450531,227.528549 292.179718,226.682220 292.453186,225.050491 
	C316.363708,224.259903 340.400269,222.941284 365.386566,224.364471 
	C363.449768,227.389694 361.010010,227.552078 358.982758,228.119339 
	C349.760315,230.699951 343.608368,235.747314 341.609222,245.819321 
	C339.933868,254.260025 325.423309,258.177795 318.243256,252.664566 
	C315.341583,250.436493 312.527985,248.093689 309.375793,245.601501 
z"/>
<path fill="#ff0000" opacity="1.000000" stroke="none" 
	d="
M65.349663,195.158081 
	C69.238930,193.170532 72.073395,194.549332 74.519753,197.131348 
	C76.143158,198.844772 76.390465,200.971283 75.522865,203.123535 
	C74.669548,205.240372 72.833916,205.915817 70.709419,205.875870 
	C69.562607,205.854324 68.379082,205.804382 67.282135,205.508057 
	C64.671204,204.802780 61.174904,205.058060 60.432549,201.654205 
	C59.694828,198.271606 62.728298,196.914932 65.349663,195.158081 
z"/>
<path fill="#ff0000" opacity="1.000000" stroke="none" 
	d="
M367.611877,144.477051 
	C372.302338,143.986847 375.643250,145.270050 377.559082,149.791702 
	C373.878387,151.976929 370.295593,151.189453 366.796600,150.792007 
	C365.370636,150.630005 364.421600,149.596603 364.323700,148.099686 
	C364.190735,146.066711 365.668488,145.262085 367.611877,144.477051 
z"/>
</svg>